<svg width="157" height="23" viewBox="0 0 157 23" fill="none" xmlns="http://www.w3.org/2000/svg">
<rect width="157" height="23" rx="10" fill="white" fill-opacity="0.5"/>
<path d="M20.5117 13.3184C20.5117 13.0254 20.4004 12.7988 20.1777 12.6387C19.959 12.4746 19.5742 12.334 19.0234 12.2168C18.4766 12.0996 18.041 11.959 17.7168 11.7949C17.3965 11.6309 17.1582 11.4355 17.002 11.209C16.8496 10.9824 16.7734 10.7129 16.7734 10.4004C16.7734 9.88086 16.9922 9.44141 17.4297 9.08203C17.8711 8.72266 18.4336 8.54297 19.1172 8.54297C19.8359 8.54297 20.418 8.72852 20.8633 9.09961C21.3125 9.4707 21.5371 9.94531 21.5371 10.5234H20.4473C20.4473 10.2266 20.3203 9.9707 20.0664 9.75586C19.8164 9.54102 19.5 9.43359 19.1172 9.43359C18.7227 9.43359 18.4141 9.51953 18.1914 9.69141C17.9688 9.86328 17.8574 10.0879 17.8574 10.3652C17.8574 10.627 17.9609 10.8242 18.168 10.957C18.375 11.0898 18.748 11.2168 19.2871 11.3379C19.8301 11.459 20.2695 11.6035 20.6055 11.7715C20.9414 11.9395 21.1895 12.1426 21.3496 12.3809C21.5137 12.6152 21.5957 12.9023 21.5957 13.2422C21.5957 13.8086 21.3691 14.2637 20.916 14.6074C20.4629 14.9473 19.875 15.1172 19.1523 15.1172C18.6445 15.1172 18.1953 15.0273 17.8047 14.8477C17.4141 14.668 17.1074 14.418 16.8848 14.0977C16.666 13.7734 16.5566 13.4238 16.5566 13.0488H17.6406C17.6602 13.4121 17.8047 13.7012 18.0742 13.916C18.3477 14.127 18.707 14.2324 19.1523 14.2324C19.5625 14.2324 19.8906 14.1504 20.1367 13.9863C20.3867 13.8184 20.5117 13.5957 20.5117 13.3184ZM25.6387 15.1172C24.7793 15.1172 24.0801 14.8359 23.541 14.2734C23.002 13.707 22.7324 12.9512 22.7324 12.0059V11.8066C22.7324 11.1777 22.8516 10.6172 23.0898 10.125C23.332 9.62891 23.668 9.24219 24.0977 8.96484C24.5312 8.68359 25 8.54297 25.5039 8.54297C26.3281 8.54297 26.9688 8.81445 27.4258 9.35742C27.8828 9.90039 28.1113 10.6777 28.1113 11.6895V12.1406H23.8164C23.832 12.7656 24.0137 13.2715 24.3613 13.6582C24.7129 14.041 25.1582 14.2324 25.6973 14.2324C26.0801 14.2324 26.4043 14.1543 26.6699 13.998C26.9355 13.8418 27.168 13.6348 27.3672 13.377L28.0293 13.8926C27.498 14.709 26.7012 15.1172 25.6387 15.1172ZM25.5039 9.43359C25.0664 9.43359 24.6992 9.59375 24.4023 9.91406C24.1055 10.2305 23.9219 10.6758 23.8516 11.25H27.0273V11.168C26.9961 10.6172 26.8477 10.1914 26.582 9.89062C26.3164 9.58594 25.957 9.43359 25.5039 9.43359ZM33.2852 15C33.2227 14.875 33.1719 14.6523 33.1328 14.332C32.6289 14.8555 32.0273 15.1172 31.3281 15.1172C30.7031 15.1172 30.1895 14.9414 29.7871 14.5898C29.3887 14.2344 29.1895 13.7852 29.1895 13.2422C29.1895 12.582 29.4395 12.0703 29.9395 11.707C30.4434 11.3398 31.1504 11.1562 32.0605 11.1562H33.1152V10.6582C33.1152 10.2793 33.002 9.97852 32.7754 9.75586C32.5488 9.5293 32.2148 9.41602 31.7734 9.41602C31.3867 9.41602 31.0625 9.51367 30.8008 9.70898C30.5391 9.9043 30.4082 10.1406 30.4082 10.418H29.3184C29.3184 10.1016 29.4297 9.79688 29.6523 9.50391C29.8789 9.20703 30.1836 8.97266 30.5664 8.80078C30.9531 8.62891 31.377 8.54297 31.8379 8.54297C32.5684 8.54297 33.1406 8.72656 33.5547 9.09375C33.9688 9.45703 34.1836 9.95898 34.1992 10.5996V13.5176C34.1992 14.0996 34.2734 14.5625 34.4219 14.9062V15H33.2852ZM31.4863 14.1738C31.8262 14.1738 32.1484 14.0859 32.4531 13.9102C32.7578 13.7344 32.9785 13.5059 33.1152 13.2246V11.9238H32.2656C30.9375 11.9238 30.2734 12.3125 30.2734 13.0898C30.2734 13.4297 30.3867 13.6953 30.6133 13.8867C30.8398 14.0781 31.1309 14.1738 31.4863 14.1738ZM38.9629 9.63281C38.7988 9.60547 38.6211 9.5918 38.4297 9.5918C37.7188 9.5918 37.2363 9.89453 36.9824 10.5V15H35.8984V8.66016H36.9531L36.9707 9.39258C37.3262 8.82617 37.8301 8.54297 38.4824 8.54297C38.6934 8.54297 38.8535 8.57031 38.9629 8.625V9.63281ZM42.3906 14.2324C42.7773 14.2324 43.1152 14.1152 43.4043 13.8809C43.6934 13.6465 43.8535 13.3535 43.8848 13.002H44.9102C44.8906 13.3652 44.7656 13.7109 44.5352 14.0391C44.3047 14.3672 43.9961 14.6289 43.6094 14.8242C43.2266 15.0195 42.8203 15.1172 42.3906 15.1172C41.5273 15.1172 40.8398 14.8301 40.3281 14.2559C39.8203 13.6777 39.5664 12.8887 39.5664 11.8887V11.707C39.5664 11.0898 39.6797 10.541 39.9062 10.0605C40.1328 9.58008 40.457 9.20703 40.8789 8.94141C41.3047 8.67578 41.8066 8.54297 42.3848 8.54297C43.0957 8.54297 43.6855 8.75586 44.1543 9.18164C44.627 9.60742 44.8789 10.1602 44.9102 10.8398H43.8848C43.8535 10.4297 43.6973 10.0938 43.416 9.83203C43.1387 9.56641 42.7949 9.43359 42.3848 9.43359C41.834 9.43359 41.4062 9.63281 41.1016 10.0312C40.8008 10.4258 40.6504 10.998 40.6504 11.748V11.9531C40.6504 12.6836 40.8008 13.2461 41.1016 13.6406C41.4023 14.0352 41.832 14.2324 42.3906 14.2324ZM47.2129 9.42773C47.6934 8.83789 48.3184 8.54297 49.0879 8.54297C50.4277 8.54297 51.1035 9.29883 51.1152 10.8105V15H50.0312V10.8047C50.0273 10.3477 49.9219 10.0098 49.7148 9.79102C49.5117 9.57227 49.1934 9.46289 48.7598 9.46289C48.4082 9.46289 48.0996 9.55664 47.834 9.74414C47.5684 9.93164 47.3613 10.1777 47.2129 10.4824V15H46.1289V6H47.2129V9.42773ZM61.082 11.9004C61.082 12.8691 60.8594 13.6484 60.4141 14.2383C59.9688 14.8242 59.3711 15.1172 58.6211 15.1172C57.8203 15.1172 57.2012 14.834 56.7637 14.2676L56.7109 15H55.7148V6H56.7988V9.35742C57.2363 8.81445 57.8398 8.54297 58.6094 8.54297C59.3789 8.54297 59.9824 8.83398 60.4199 9.41602C60.8613 9.99805 61.082 10.7949 61.082 11.8066V11.9004ZM59.998 11.7773C59.998 11.0391 59.8555 10.4688 59.5703 10.0664C59.2852 9.66406 58.875 9.46289 58.3398 9.46289C57.625 9.46289 57.1113 9.79492 56.7988 10.459V13.2012C57.1309 13.8652 57.6484 14.1973 58.3516 14.1973C58.8711 14.1973 59.2754 13.9961 59.5645 13.5938C59.8535 13.1914 59.998 12.5859 59.998 11.7773ZM66.3672 15C66.3047 14.875 66.2539 14.6523 66.2148 14.332C65.7109 14.8555 65.1094 15.1172 64.4102 15.1172C63.7852 15.1172 63.2715 14.9414 62.8691 14.5898C62.4707 14.2344 62.2715 13.7852 62.2715 13.2422C62.2715 12.582 62.5215 12.0703 63.0215 11.707C63.5254 11.3398 64.2324 11.1562 65.1426 11.1562H66.1973V10.6582C66.1973 10.2793 66.084 9.97852 65.8574 9.75586C65.6309 9.5293 65.2969 9.41602 64.8555 9.41602C64.4688 9.41602 64.1445 9.51367 63.8828 9.70898C63.6211 9.9043 63.4902 10.1406 63.4902 10.418H62.4004C62.4004 10.1016 62.5117 9.79688 62.7344 9.50391C62.9609 9.20703 63.2656 8.97266 63.6484 8.80078C64.0352 8.62891 64.459 8.54297 64.9199 8.54297C65.6504 8.54297 66.2227 8.72656 66.6367 9.09375C67.0508 9.45703 67.2656 9.95898 67.2812 10.5996V13.5176C67.2812 14.0996 67.3555 14.5625 67.5039 14.9062V15H66.3672ZM64.5684 14.1738C64.9082 14.1738 65.2305 14.0859 65.5352 13.9102C65.8398 13.7344 66.0605 13.5059 66.1973 13.2246V11.9238H65.3477C64.0195 11.9238 63.3555 12.3125 63.3555 13.0898C63.3555 13.4297 63.4688 13.6953 63.6953 13.8867C63.9219 14.0781 64.2129 14.1738 64.5684 14.1738ZM72.0449 9.63281C71.8809 9.60547 71.7031 9.5918 71.5117 9.5918C70.8008 9.5918 70.3184 9.89453 70.0645 10.5V15H68.9805V8.66016H70.0352L70.0527 9.39258C70.4082 8.82617 70.9121 8.54297 71.5645 8.54297C71.7754 8.54297 71.9355 8.57031 72.0449 8.625V9.63281Z" fill="black" fill-opacity="0.3"/>
</svg>
